<svg width="362" height="246" fill="none" xmlns="http://www.w3.org/2000/svg"><path d="M255.407 36.276c-47.763-47.937-125.216-47.937-172.98 0l-78.068 78.35a11.849 11.849 0 0 0 0 16.738l78.068 78.35c47.764 47.937 125.217 47.937 172.98.079 47.841-47.859 47.841-125.58 0-173.517Zm-18.459 150.491c-35.073 35.206-91.99 35.206-127.063 0L52.43 129.164c-3.384-3.379-3.384-8.88 0-12.338l57.378-57.524c35.073-35.207 91.99-35.207 127.063 0 35.15 35.206 35.15 92.259.077 127.465ZM357.699 114.704l-34.381-35.127c-2.077-2.122-5.538-.158-4.846 2.75a189.457 189.457 0 0 1 0 81.572c-.615 2.907 2.846 4.793 4.846 2.75l34.381-35.128c4.538-4.715 4.538-12.18 0-16.817Z" fill="#00B3FF"/><path d="M173.799 184.646c33.26 0 60.224-27.549 60.224-61.533 0-33.983-26.964-61.532-60.224-61.532-33.261 0-60.224 27.549-60.224 61.532 0 33.984 26.963 61.533 60.224 61.533Z" fill="#00B3FF"/></svg>